<?xml version="1.0" standalone="no"?>
<svg xmlns="http://www.w3.org/2000/svg" viewBox="0 0 107 69" width="107" height="69"><g fill="#61d1b6" color="#61d1b6" transform="translate(31.113 0) scale(0.44) "><g transform="translate(-17.0, 18.0)"><svg width="100.0" height="100.0" x="17.0" y="-18.0" viewBox="17 -18 100 100"><path d="M103.5,57L84.7,68.5C92,72.6,104.5,78.9,117,82L103.5,57z M67-18C39.9-18,17,2.8,17,27.8c0,27.1,22.9,45.8,50,45.8  s50-18.7,50-45.8C117,2.8,94.1-18,67-18z"></path></svg></g></g><path fill="#61d1b6" fill-rule="nonzero" d="M0 0.36L7.92 0.36L7.92 1.80L4.80 1.80L4.80 15.96L3.12 15.96L3.12 1.80L0 1.80L0 0.36ZM18.48 3.36L18.48 15.96L17.76 15.96L17.14 14.42Q16.63 15.29 15.82 15.80Q15 16.32 14.02 16.32L14.02 16.32Q10.56 16.32 10.56 12.96L10.56 12.96L10.56 10.56Q10.56 7.20 14.02 7.20L14.02 7.20L16.80 7.20L16.80 3.26Q16.80 2.40 16.25 1.92Q15.70 1.44 14.62 1.44L14.62 1.44Q12.48 1.44 12.48 3.26L12.48 3.26L12.48 4.68L10.80 4.68L10.80 3.36Q10.80 1.75 11.75 0.88Q12.70 0 14.62 0Q16.54 0 17.51 0.88Q18.48 1.75 18.48 3.36L18.48 3.36ZM16.80 12.55L16.80 8.64L14.02 8.64Q13.01 8.64 12.62 9.14Q12.24 9.65 12.24 10.56L12.24 10.56L12.24 12.96Q12.24 13.87 12.62 14.38Q13.01 14.88 14.02 14.88Q15.02 14.88 15.89 14.10Q16.75 13.32 16.80 12.55L16.80 12.55ZM29.11 15.96L23.04 15.96L23.04 0.36L24.72 0.36L24.72 14.52L29.11 14.52L29.11 15.96ZM33.70 9.96L33.70 15.96L32.02 15.96L32.02 0.36L33.70 0.36L33.70 6.98L37.87 0.36L39.74 0.36L35.50 7.08L40.03 15.96L38.18 15.96L34.49 8.69L33.70 9.96ZM46.99 15.96L50.52 0.36L53.04 0.36L56.57 15.96L54.89 15.96L54.07 12.36L49.49 12.36L48.67 15.96L46.99 15.96ZM53.74 10.92L51.77 2.23L49.80 10.92L53.74 10.92ZM65.81 12.96L65.81 12.96L65.81 11.64L67.49 11.64L67.49 12.96Q67.49 14.57 66.50 15.44Q65.52 16.32 63.55 16.32Q61.58 16.32 60.58 15.44Q59.57 14.57 59.57 12.96L59.57 12.96L59.57 3.36Q59.57 1.75 60.55 0.88Q61.54 0 63.50 0Q65.47 0 66.48 0.88Q67.49 1.75 67.49 3.36L67.49 3.36L67.49 5.64L65.81 5.64L65.81 3.36Q65.81 1.44 63.53 1.44Q61.25 1.44 61.25 3.36L61.25 3.36L61.25 12.96Q61.25 14.88 63.53 14.88Q65.81 14.88 65.81 12.96ZM71.33 13.20L71.33 0.36L76.61 0.36L76.61 1.80L73.01 1.80L73.01 13.30Q73.01 13.97 73.36 14.42Q73.70 14.88 74.34 14.88Q74.98 14.88 75.31 14.44Q75.65 13.99 75.65 13.30L75.65 13.30L75.65 10.44L77.33 10.44L77.33 13.20Q77.33 14.71 76.52 15.52Q75.72 16.32 74.35 16.32Q72.98 16.32 72.16 15.52Q71.33 14.71 71.33 13.20L71.33 13.20ZM82.37 0.36L82.37 15.96L80.69 15.96L80.69 0.36L82.37 0.36ZM95.30 0.36L91.78 15.96L89.26 15.96L85.73 0.36L87.41 0.36L90.50 14.11L93.62 0.36L95.30 0.36ZM104.54 12.96L104.54 12.96L104.54 11.64L106.22 11.64L106.22 12.96Q106.22 14.57 105.24 15.44Q104.26 16.32 102.29 16.32Q100.32 16.32 99.31 15.44Q98.30 14.57 98.30 12.96L98.30 12.96L98.30 3.36Q98.30 1.75 99.29 0.88Q100.27 0 102.24 0Q104.21 0 105.22 0.88Q106.22 1.75 106.22 3.36L106.22 3.36L106.22 8.64L99.98 8.64L99.98 12.96Q99.98 14.88 102.26 14.88Q104.54 14.88 104.54 12.96ZM99.98 3.36L99.98 3.36L99.98 7.20L104.54 7.20L104.54 3.36Q104.54 1.44 102.26 1.44Q99.98 1.44 99.98 3.36Z" transform="translate(0, 52)"></path></svg>